#extradata 0:       30, 0x53be0347
#tb 0: 1/90000
#media_type 0: audio
#codec_id 0: opus
#sample_rate 0: 48000
#channel_layout 0: 63f
0,          0,          0,     1800,      744, 0x172b615b, S=1,        1, 0x00bd00bd
0,       1800,       1800,     1800,      743, 0x3f5b673d, S=1,        1, 0x00bd00bd
0,       3600,       3600,     1800,      747, 0xe54e735d, S=1,        1, 0x00bd00bd
0,       5400,       5400,     1800,      742, 0x5d0d8393, S=1,        1, 0x00bd00bd
0,       7200,       7200,     1800,      752, 0x39267814, S=1,        1, 0x00bd00bd
0,       9000,       9000,     1800,      753, 0x2131765e, S=1,        1, 0x00bd00bd
0,      10800,      10800,     1800,      756, 0x5132827f, S=1,        1, 0x00bd00bd
0,      12600,      12600,     1800,      761, 0x4857760b, S=1,        1, 0x00bd00bd
0,      14400,      14400,     1800,      755, 0x87ab75d6, S=1,        1, 0x00bd00bd
0,      16200,      16200,     1800,      760, 0xb8137907, S=1,        1, 0x00bd00bd
0,      18000,      18000,     1800,      759, 0x722d7908, S=1,        1, 0x00bd00bd
0,      19800,      19800,     1800,      760, 0x738674a6, S=1,        1, 0x00bd00bd
0,      21600,      21600,     1800,      762, 0x4f807c28, S=1,        1, 0x00bd00bd
0,      23400,      23400,     1800,      761, 0xea117c65, S=1,        1, 0x00bd00bd
0,      25200,      25200,     1800,      758, 0xa8ad7d2f, S=1,        1, 0x00bd00bd
0,      27000,      27000,     1800,      756, 0xbea5747a, S=1,        1, 0x00bd00bd
0,      28800,      28800,     1800,      762, 0x62ce8ab7, S=1,        1, 0x00bd00bd
0,      30600,      30600,     1800,      763, 0xd7d36ee9, S=1,        1, 0x00bd00bd
0,      32400,      32400,     1800,      765, 0x068b7b14, S=1,        1, 0x00bd00bd
0,      34200,      34200,     1800,      772, 0x7c4086f7, S=1,        1, 0x00bd00bd
0,      36000,      36000,     1800,      817, 0x81828e8c, S=1,        1, 0x00bd00bd
0,      37800,      37800,     1800,      828, 0x182d9622, S=1,        1, 0x00bd00bd
0,      39600,      39600,     1800,      952, 0xcb36d7f3, S=1,        1, 0x00bd00bd
0,      41400,      41400,     1800,      819, 0x94049c46, S=1,        1, 0x00bd00bd
0,      43200,      43200,     1800,      816, 0x9a0794de, S=1,        1, 0x00bd00bd
0,      45000,      45000,     1800,      825, 0x2745a0b5, S=1,        1, 0x00bd00bd
0,      46800,      46800,     1800,      814, 0x4abc994c, S=1,        1, 0x00bd00bd
0,      48600,      48600,     1800,      824, 0xe49b89ea, S=1,        1, 0x00bd00bd
0,      50400,      50400,     1800,      815, 0x2f4b8673, S=1,        1, 0x00bd00bd
0,      52200,      52200,     1800,      824, 0x703da79a, S=1,        1, 0x00bd00bd
0,      54000,      54000,     1800,      822, 0x41e59285, S=1,        1, 0x00bd00bd
0,      55800,      55800,     1800,      819, 0xbc4c8f4d, S=1,        1, 0x00bd00bd
0,      57600,      57600,     1800,      817, 0xba7f9614, S=1,        1, 0x00bd00bd
0,      59400,      59400,     1800,      826, 0x74cb9b10, S=1,        1, 0x00bd00bd
0,      61200,      61200,     1800,      822, 0xab4ba435, S=1,        1, 0x00bd00bd
0,      63000,      63000,     1800,      815, 0xf1209eeb, S=1,        1, 0x00bd00bd
0,      64800,      64800,     1800,      820, 0x302b8f4a, S=1,        1, 0x00bd00bd
0,      66600,      66600,     1800,      828, 0x16e29b1b, S=1,        1, 0x00bd00bd
0,      68400,      68400,     1800,      828, 0x21dba353, S=1,        1, 0x00bd00bd
0,      70200,      70200,     1800,      942, 0xf51cd517, S=1,        1, 0x00bd00bd
0,      72000,      72000,     1800,      809, 0x22b29687, S=1,        1, 0x00bd00bd
0,      73800,      73800,     1800,      823, 0x5a549e20, S=1,        1, 0x00bd00bd
0,      75600,      75600,     1800,      827, 0x51bc9130, S=1,        1, 0x00bd00bd
0,      77400,      77400,     1800,      823, 0x9a2d9334, S=1,        1, 0x00bd00bd
0,      79200,      79200,     1800,      825, 0x6b2c8a1f, S=1,        1, 0x00bd00bd
0,      81000,      81000,     1800,      828, 0xf11695c9, S=1,        1, 0x00bd00bd
0,      82800,      82800,     1800,      823, 0xcdb79edf, S=1,        1, 0x00bd00bd
0,      84600,      84600,     1800,      817, 0x5586950d, S=1,        1, 0x00bd00bd
0,      86400,      86400,     1800,      813, 0xb4f79688, S=1,        1, 0x00bd00bd
0,      88200,      88200,     1800,      809, 0xef8e9548, S=1,        1, 0x00bd00bd
0,      90000,      90000,     1800,      813, 0x08e18b6c, S=1,        1, 0x00bd00bd
0,      91800,      91800,     1800,      820, 0x94759346, S=1,        1, 0x00bd00bd
0,      93600,      93600,     1800,      818, 0x7ba198dc, S=1,        1, 0x00bd00bd
0,      95400,      95400,     1800,      825, 0x96d095fe, S=1,        1, 0x00bd00bd
0,      97200,      97200,     1800,      808, 0xa72fa0ac, S=1,        1, 0x00bd00bd
0,      99000,      99000,     1800,      774, 0x36c67f3c, S=1,        1, 0x00bd00bd
0,     100800,     100800,     1800,      774, 0x08ac8292, S=1,        1, 0x00bd00bd
0,     102600,     102600,     1800,      777, 0x866591ea, S=1,        1, 0x00bd00bd
0,     104400,     104400,     1800,      776, 0xd3cb7ec6, S=1,        1, 0x00bd00bd
0,     106200,     106200,     1800,      779, 0xc6927a93, S=1,        1, 0x00bd00bd
0,     108000,     108000,     1800,      779, 0x73d182ca, S=1,        1, 0x00bd00bd
0,     109800,     109800,     1800,      774, 0xd97871d2, S=1,        1, 0x00bd00bd
0,     111600,     111600,     1800,      772, 0x37228529, S=1,        1, 0x00bd00bd
0,     113400,     113400,     1800,      779, 0x9f618562, S=1,        1, 0x00bd00bd
0,     115200,     115200,     1800,      774, 0xee078bd8, S=1,        1, 0x00bd00bd
0,     117000,     117000,     1800,      772, 0xceed8003, S=1,        1, 0x00bd00bd
0,     118800,     118800,     1800,      771, 0x8e478da2, S=1,        1, 0x00bd00bd
0,     120600,     120600,     1800,      776, 0x4fae8319, S=1,        1, 0x00bd00bd
0,     122400,     122400,     1800,      776, 0xea5d91ab, S=1,        1, 0x00bd00bd
0,     124200,     124200,     1800,      777, 0x52b988f2, S=1,        1, 0x00bd00bd
0,     126000,     126000,     1800,      779, 0xb25187e2, S=1,        1, 0x00bd00bd
0,     127800,     127800,     1800,      779, 0xbe0c88de, S=1,        1, 0x00bd00bd
0,     129600,     129600,     1800,      774, 0xaab58263, S=1,        1, 0x00bd00bd
0,     131400,     131400,     1800,      779, 0xd1b58090, S=1,        1, 0x00bd00bd
0,     133200,     133200,     1800,      782, 0x46229193, S=1,        1, 0x00bd00bd
0,     135000,     135000,     1800,      776, 0x873c8e09, S=1,        1, 0x00bd00bd
0,     136800,     136800,     1800,      778, 0x3ea578e8, S=1,        1, 0x00bd00bd
0,     138600,     138600,     1800,      777, 0xebf88d2c, S=1,        1, 0x00bd00bd
0,     140400,     140400,     1800,      785, 0x9a8886e2, S=1,        1, 0x00bd00bd
0,     142200,     142200,     1800,      782, 0x000283d0, S=1,        1, 0x00bd00bd
0,     144000,     144000,     1800,      782, 0x7c7f7e7f, S=1,        1, 0x00bd00bd
0,     145800,     145800,     1800,      780, 0xdba17e74, S=1,        1, 0x00bd00bd
0,     147600,     147600,     1800,      776, 0x7a77823a, S=1,        1, 0x00bd00bd
0,     149400,     149400,     1800,      780, 0x570e8459, S=1,        1, 0x00bd00bd
0,     151200,     151200,     1800,      784, 0x13008da0, S=1,        1, 0x00bd00bd
0,     153000,     153000,     1800,      776, 0xf97b85bb, S=1,        1, 0x00bd00bd
0,     154800,     154800,     1800,      777, 0x7ea88b95, S=1,        1, 0x00bd00bd
0,     156600,     156600,     1800,      783, 0x45a07db2, S=1,        1, 0x00bd00bd
0,     158400,     158400,     1800,      780, 0xc3598deb, S=1,        1, 0x00bd00bd
0,     160200,     160200,     1800,      782, 0x4aee86d5, S=1,        1, 0x00bd00bd
0,     162000,     162000,     1800,      848, 0x2ade9d75, S=1,        1, 0x00bd00bd
0,     163800,     163800,     1800,      849, 0xc617a90e, S=1,        1, 0x00bd00bd
0,     165600,     165600,     1800,      783, 0xc99d8348, S=1,        1, 0x00bd00bd
0,     167400,     167400,     1800,      784, 0x01938414, S=1,        1, 0x00bd00bd
0,     169200,     169200,     1800,      785, 0xaa1e7f3a, S=1,        1, 0x00bd00bd
0,     171000,     171000,     1800,      783, 0x373984e5, S=1,        1, 0x00bd00bd
0,     172800,     172800,     1800,      876, 0x30c3b045, S=1,        1, 0x00bd00bd
0,     174600,     174600,     1800,      776, 0x54b58475, S=1,        1, 0x00bd00bd
0,     176400,     176400,     1800,      787, 0x76e7856f, S=1,        1, 0x00bd00bd
0,     178200,     178200,     1800,      781, 0xf1f680c2, S=1,        1, 0x00bd00bd
0,     180000,     180000,     1800,      852, 0xae8baec5, S=1,        1, 0x00bd00bd
0,     181800,     181800,     1800,      849, 0x270d9d75, S=1,        1, 0x00bd00bd
0,     183600,     183600,     1800,      873, 0x3d20ae97, S=1,        1, 0x00bd00bd
0,     185400,     185400,     1800,      843, 0x0ef4a2e0, S=1,        1, 0x00bd00bd
0,     187200,     187200,     1800,      841, 0xf2c5ad85, S=1,        1, 0x00bd00bd
0,     189000,     189000,     1800,      777, 0xebf88dbf, S=1,        1, 0x00bd00bd
0,     190800,     190800,     1800,      846, 0x77bda358, S=1,        1, 0x00bd00bd
0,     192600,     192600,     1800,      782, 0x47958532, S=1,        1, 0x00bd00bd
0,     194400,     194400,     1800,      869, 0xa1c1ae39, S=1,        1, 0x00bd00bd
0,     196200,     196200,     1800,      778, 0xa7428581, S=1,        1, 0x00bd00bd
0,     198000,     198000,     1800,      777, 0x550e85c4, S=1,        1, 0x00bd00bd
0,     199800,     199800,     1800,      870, 0x46c8c374, S=1,        1, 0x00bd00bd
0,     201600,     201600,     1800,      782, 0x6a44850b, S=1,        1, 0x00bd00bd
0,     203400,     203400,     1800,      777, 0xb956775e, S=1,        1, 0x00bd00bd
0,     205200,     205200,     1800,      869, 0x3fc4b23a, S=1,        1, 0x00bd00bd
0,     207000,     207000,     1800,      772, 0x81568572, S=1,        1, 0x00bd00bd
0,     208800,     208800,     1800,      775, 0x77688738, S=1,        1, 0x00bd00bd
0,     210600,     210600,     1800,      771, 0x1f2276f1, S=1,        1, 0x00bd00bd
0,     212400,     212400,     1800,      778, 0x82ec7e07, S=1,        1, 0x00bd00bd
0,     214200,     214200,     1800,      867, 0x1042acb8, S=1,        1, 0x00bd00bd
0,     216000,     216000,     1800,      778, 0x3f007d1a, S=1,        1, 0x00bd00bd
0,     217800,     217800,     1800,      774, 0x66a08780, S=1,        1, 0x00bd00bd
0,     219600,     219600,     1800,      775, 0xebdc822d, S=1,        1, 0x00bd00bd
0,     221400,     221400,     1800,      774, 0x33d7894e, S=1,        1, 0x00bd00bd
0,     223200,     223200,     1800,      774, 0x734c7623, S=1,        1, 0x00bd00bd
0,     225000,     225000,     1800,      772, 0xbb9977d2, S=1,        1, 0x00bd00bd
0,     226800,     226800,     1800,      774, 0x8f8670d1, S=1,        1, 0x00bd00bd
0,     228600,     228600,     1800,      775, 0x23857f28, S=1,        1, 0x00bd00bd
0,     230400,     230400,     1800,      773, 0x709f6731, S=1,        1, 0x00bd00bd
0,     232200,     232200,     1800,      773, 0xc1fa752e, S=1,        1, 0x00bd00bd
0,     234000,     234000,     1800,      769, 0x2e337fe4, S=1,        1, 0x00bd00bd
0,     235800,     235800,     1800,      774, 0x4ab07b6f, S=1,        1, 0x00bd00bd
0,     237600,     237600,     1800,      779, 0x95d386f8, S=1,        1, 0x00bd00bd
0,     239400,     239400,     1800,      782, 0x38637dc5, S=1,        1, 0x00bd00bd
0,     241200,     241200,     1800,      779, 0x78a778d5, S=1,        1, 0x00bd00bd
0,     243000,     243000,     1800,      778, 0xb945760f, S=1,        1, 0x00bd00bd
0,     244800,     244800,     1800,      771, 0x6749751a, S=1,        1, 0x00bd00bd
0,     246600,     246600,     1800,      775, 0x05cd7c6d, S=1,        1, 0x00bd00bd
0,     248400,     248400,     1800,      777, 0x25587463, S=1,        1, 0x00bd00bd
0,     250200,     250200,     1800,      773, 0x6ab97c1d, S=1,        1, 0x00bd00bd
0,     252000,     252000,     1800,      777, 0x2b947d43, S=1,        1, 0x00bd00bd
0,     253800,     253800,     1800,      777, 0x3f337893, S=1,        1, 0x00bd00bd
0,     255600,     255600,     1800,      908, 0x64b1be4e, S=1,        1, 0x00bd00bd
0,     257400,     257400,     1800,      777, 0xb480873e, S=1,        1, 0x00bd00bd
0,     259200,     259200,     1800,      772, 0xb3ec76c2, S=1,        1, 0x00bd00bd
0,     261000,     261000,     1800,      778, 0x4e7c7ef9, S=1,        1, 0x00bd00bd
0,     262800,     262800,     1800,      776, 0xcdc6837f, S=1,        1, 0x00bd00bd
0,     264600,     264600,     1800,      775, 0xf2508942, S=1,        1, 0x00bd00bd
0,     266400,     266400,     1800,      772, 0x12907489, S=1,        1, 0x00bd00bd
0,     268200,     268200,     1800,      778, 0x9c6f7ec4, S=1,        1, 0x00bd00bd
0,     270000,     270000,     1800,      808, 0x00b68b53, S=1,        1, 0x00bd00bd
0,     271800,     271800,     1800,      836, 0x5eafa13b, S=1,        1, 0x00bd00bd
0,     273600,     273600,     1800,      913, 0x41bbb8ef, S=1,        1, 0x00bd00bd
0,     275400,     275400,     1800,      837, 0xc87c9722, S=1,        1, 0x00bd00bd
0,     277200,     277200,     1800,      834, 0x0f6a9e6b, S=1,        1, 0x00bd00bd
0,     279000,     279000,     1800,      836, 0x4447af84, S=1,        1, 0x00bd00bd
0,     280800,     280800,     1800,      832, 0x95bea5c4, S=1,        1, 0x00bd00bd
0,     282600,     282600,     1800,      826, 0x17b7ab77, S=1,        1, 0x00bd00bd
0,     284400,     284400,     1800,      817, 0x85eb9dec, S=1,        1, 0x00bd00bd
0,     286200,     286200,     1800,      825, 0xe21489b4, S=1,        1, 0x00bd00bd
0,     288000,     288000,     1800,      824, 0xa2719501, S=1,        1, 0x00bd00bd
0,     289800,     289800,     1800,      828, 0xad3d8dfc, S=1,        1, 0x00bd00bd
0,     291600,     291600,     1800,      833, 0x39419a9f, S=1,        1, 0x00bd00bd
0,     293400,     293400,     1800,      832, 0x7b46b0d0, S=1,        1, 0x00bd00bd
0,     295200,     295200,     1800,      896, 0x351aa129, S=1,        1, 0x00bd00bd
0,     297000,     297000,     1800,      824, 0x215ba6a6, S=1,        1, 0x00bd00bd
0,     298800,     298800,     1800,      812, 0x523aa6e4, S=1,        1, 0x00bd00bd
0,     300600,     300600,     1800,      821, 0x3f3fa6df, S=1,        1, 0x00bd00bd
0,     302400,     302400,     1800,      883, 0xa87a9886, S=1,        1, 0x00bd00bd
0,     304200,     304200,     1800,      820, 0xe097a7ee, S=1,        1, 0x00bd00bd
0,     306000,     306000,     1800,      835, 0xf3a3a496, S=1,        1, 0x00bd00bd
0,     307800,     307800,     1800,      833, 0xa7d1a13e, S=1,        1, 0x00bd00bd
0,     309600,     309600,     1800,      830, 0xab719f25, S=1,        1, 0x00bd00bd
0,     311400,     311400,     1800,      820, 0x80599754, S=1,        1, 0x00bd00bd
0,     313200,     313200,     1800,      815, 0x517e8dec, S=1,        1, 0x00bd00bd
0,     315000,     315000,     1800,      827, 0x8e33855b, S=1,        1, 0x00bd00bd
0,     316800,     316800,     1800,      819, 0x6a7d88a3, S=1,        1, 0x00bd00bd
0,     318600,     318600,     1800,      828, 0x69b09497, S=1,        1, 0x00bd00bd
0,     320400,     320400,     1800,      830, 0x72cb9f2a, S=1,        1, 0x00bd00bd
0,     322200,     322200,     1800,      828, 0xb7299897, S=1,        1, 0x00bd00bd
0,     324000,     324000,     1800,      829, 0x9dcaa4b8, S=1,        1, 0x00bd00bd
0,     325800,     325800,     1800,      820, 0x6303a6bd, S=1,        1, 0x00bd00bd
0,     327600,     327600,     1800,      823, 0xf1d694e7, S=1,        1, 0x00bd00bd
0,     329400,     329400,     1800,      798, 0x6add8cfc, S=1,        1, 0x00bd00bd
0,     331200,     331200,     1800,      772, 0xd7927331, S=1,        1, 0x00bd00bd
0,     333000,     333000,     1800,      779, 0x82eb7660, S=1,        1, 0x00bd00bd
0,     334800,     334800,     1800,      774, 0x50217e2b, S=1,        1, 0x00bd00bd
0,     336600,     336600,     1800,      907, 0xfcd7bc7e, S=1,        1, 0x00bd00bd
0,     338400,     338400,     1800,      772, 0x433b6c19, S=1,        1, 0x00bd00bd
0,     340200,     340200,     1800,      777, 0xf3737c93, S=1,        1, 0x00bd00bd
0,     342000,     342000,     1800,      777, 0x74c18580, S=1,        1, 0x00bd00bd
0,     343800,     343800,     1800,      777, 0xb4d97b39, S=1,        1, 0x00bd00bd
0,     345600,     345600,     1800,      775, 0xde3a85fd, S=1,        1, 0x00bd00bd
0,     347400,     347400,     1800,      773, 0xf2fc8d11, S=1,        1, 0x00bd00bd
0,     349200,     349200,     1800,      777, 0xac3f86d0, S=1,        1, 0x00bd00bd
0,     351000,     351000,     1800,      777, 0x6a138265, S=1,        1, 0x00bd00bd
0,     352800,     352800,     1800,      776, 0xfbb58ca1, S=1,        1, 0x00bd00bd
0,     354600,     354600,     1800,      780, 0xd28a84cf, S=1,        1, 0x00bd00bd
0,     356400,     356400,     1800,      776, 0x623a7e56, S=1,        1, 0x00bd00bd
0,     358200,     358200,     1800,      778, 0xccb17d51, S=1,        1, 0x00bd00bd
0,     360000,     360000,     1800,      774, 0x15747fcb, S=1,        1, 0x00bd00bd
0,     361800,     361800,     1800,      778, 0xebf48852, S=1,        1, 0x00bd00bd
0,     363600,     363600,     1800,      777, 0xec0d71f5, S=1,        1, 0x00bd00bd
0,     365400,     365400,     1800,      773, 0xea328055, S=1,        1, 0x00bd00bd
0,     367200,     367200,     1800,      782, 0xc47c8ba6, S=1,        1, 0x00bd00bd
0,     369000,     369000,     1800,      780, 0x9de38ea5, S=1,        1, 0x00bd00bd
0,     370800,     370800,     1800,      777, 0xa1d989c3, S=1,        1, 0x00bd00bd
0,     372600,     372600,     1800,      775, 0xff8e829b, S=1,        1, 0x00bd00bd
0,     374400,     374400,     1800,      777, 0x7f4685bd, S=1,        1, 0x00bd00bd
0,     376200,     376200,     1800,      776, 0x911090ef, S=1,        1, 0x00bd00bd
0,     378000,     378000,     1800,      778, 0x47a086b1, S=1,        1, 0x00bd00bd
0,     379800,     379800,     1800,      775, 0x83f081f4, S=1,        1, 0x00bd00bd
0,     381600,     381600,     1800,      775, 0xf7d48741, S=1,        1, 0x00bd00bd
0,     383400,     383400,     1800,      779, 0x2c087a7b, S=1,        1, 0x00bd00bd
0,     385200,     385200,     1800,      779, 0x5c77857a, S=1,        1, 0x00bd00bd
0,     387000,     387000,     1800,      778, 0x46907b70, S=1,        1, 0x00bd00bd
0,     388800,     388800,     1800,      780, 0xc3a88f68, S=1,        1, 0x00bd00bd
0,     390600,     390600,     1800,      778, 0x35aa818b, S=1,        1, 0x00bd00bd
0,     392400,     392400,     1800,      776, 0xfb3d749c, S=1,        1, 0x00bd00bd
0,     394200,     394200,     1800,      777, 0x95e37fda, S=1,        1, 0x00bd00bd
0,     396000,     396000,     1800,      841, 0xbfffa393, S=1,        1, 0x00bd00bd
0,     397800,     397800,     1800,      777, 0x63858f67, S=1,        1, 0x00bd00bd
0,     399600,     399600,     1800,      780, 0xe277884b, S=1,        1, 0x00bd00bd
0,     401400,     401400,     1800,      777, 0x1e658659, S=1,        1, 0x00bd00bd
0,     403200,     403200,     1800,      777, 0x0ed17df3, S=1,        1, 0x00bd00bd
0,     405000,     405000,     1800,      778, 0x804b6fad, S=1,        1, 0x00bd00bd
0,     406800,     406800,     1800,      778, 0x6b2c8512, S=1,        1, 0x00bd00bd
0,     408600,     408600,     1800,      779, 0x6ca776d3, S=1,        1, 0x00bd00bd
0,     410400,     410400,     1800,      776, 0x6a8b8ea9, S=1,        1, 0x00bd00bd
0,     412200,     412200,     1800,      784, 0x1a367f43, S=1,        1, 0x00bd00bd
0,     414000,     414000,     1800,      776, 0x19d2865a, S=1,        1, 0x00bd00bd
0,     415800,     415800,     1800,      778, 0xb00d860f, S=1,        1, 0x00bd00bd
0,     417600,     417600,     1800,      775, 0x9d4f7b80, S=1,        1, 0x00bd00bd
0,     419400,     419400,     1800,      781, 0x42f1863b, S=1,        1, 0x00bd00bd
0,     421200,     421200,     1800,      779, 0x6b669d4e, S=1,        1, 0x00bd00bd
0,     423000,     423000,     1800,      846, 0x9a3fab04, S=1,        1, 0x00bd00bd
0,     424800,     424800,     1800,      776, 0x2db875e2, S=1,        1, 0x00bd00bd
0,     426600,     426600,     1800,      781, 0xbadf8580, S=1,        1, 0x00bd00bd
0,     428400,     428400,     1800,      783, 0xed878378, S=1,        1, 0x00bd00bd
0,     430200,     430200,     1800,      971, 0xf23af2a9, S=1,        1, 0x00bd00bd
0,     432000,     432000,     1800,      970, 0xcecfee4f, S=1,        1, 0x00bd00bd
0,     433800,     433800,     1800,      967, 0xc737eee7, S=1,        1, 0x00bd00bd
0,     435600,     435600,     1800,      776, 0x113d8458, S=1,        1, 0x00bd00bd
0,     437400,     437400,     1800,      971, 0xd8a3e77e, S=1,        1, 0x00bd00bd
0,     439200,     439200,     1800,      962, 0xe454e344, S=1,        1, 0x00bd00bd
0,     441000,     441000,     1800,      964, 0x01bce383, S=1,        1, 0x00bd00bd
0,     442800,     442800,     1800,      773, 0xb257800b, S=1,        1, 0x00bd00bd
0,     444600,     444600,     1800,      770, 0x390a8fc9, S=1,        1, 0x00bd00bd
0,     446400,     446400,     1800,      964, 0xb377dc40, S=1,        1, 0x00bd00bd
0,     448200,     448200,     1800,      958, 0x725dd1bc, S=1,        1, 0x00bd00bd
0,     450000,     450000,     1800,      775, 0x71676ef9, S=1,        1, 0x00bd00bd
0,     451800,     451800,     1800,      775, 0x302f7be4, S=1,        1, 0x00bd00bd
0,     453600,     453600,     1800,      966, 0x15e2ddfc, S=1,        1, 0x00bd00bd
0,     455400,     455400,     1800,      843, 0xa374a091, S=1,        1, 0x00bd00bd
0,     457200,     457200,     1800,      846, 0xfeeea12f, S=1,        1, 0x00bd00bd
0,     459000,     459000,     1800,      775, 0xba4278d4, S=1,        1, 0x00bd00bd
0,     460800,     460800,     1800,      901, 0xc135cbd2, S=1,        1, 0x00bd00bd
0,     462600,     462600,     1800,      958, 0x7785ce8a, S=1,        1, 0x00bd00bd
0,     464400,     464400,     1800,      770, 0x93ff72e0, S=1,        1, 0x00bd00bd
0,     466200,     466200,     1800,      773, 0x4b858520, S=1,        1, 0x00bd00bd
0,     468000,     468000,     1800,      768, 0xf9718bc1, S=1,        1, 0x00bd00bd
0,     469800,     469800,     1800,      776, 0x42978a5d, S=1,        1, 0x00bd00bd
0,     471600,     471600,     1800,      771, 0xd40f85f4, S=1,        1, 0x00bd00bd
0,     473400,     473400,     1800,      772, 0x9e39814e, S=1,        1, 0x00bd00bd
0,     475200,     475200,     1800,      958, 0xa402dd54, S=1,        1, 0x00bd00bd
0,     477000,     477000,     1800,      771, 0xef48765c, S=1,        1, 0x00bd00bd
0,     478800,     478800,     1800,      770, 0x20367c7c, S=1,        1, 0x00bd00bd
0,     480600,     480600,     1800,      959, 0xd855ce75, S=1,        1, 0x00bd00bd
0,     482400,     482400,     1800,      769, 0x44e9805f, S=1,        1, 0x00bd00bd
0,     484200,     484200,     1800,      840, 0x0ceb90b9, S=1,        1, 0x00bd00bd
0,     486000,     486000,     1800,      769, 0xeb0b7c25, S=1,        1, 0x00bd00bd
0,     487800,     487800,     1800,      767, 0x5c278027, S=1,        1, 0x00bd00bd
0,     489600,     489600,     1800,      951, 0xa9b6dc3f, S=1,        1, 0x00bd00bd
0,     491400,     491400,     1800,      769, 0x4082825f, S=1,        1, 0x00bd00bd
0,     493200,     493200,     1800,      958, 0xd71fe68a, S=1,        1, 0x00bd00bd
0,     495000,     495000,     1800,      773, 0x35f789cd, S=1,        1, 0x00bd00bd
0,     496800,     496800,     1800,      771, 0xa15d7ecb, S=1,        1, 0x00bd00bd
0,     498600,     498600,     1800,      768, 0x35e77aca, S=1,        1, 0x00bd00bd
0,     500400,     500400,     1800,      765, 0xe23f73a5, S=1,        1, 0x00bd00bd
0,     502200,     502200,     1800,      774, 0xa2ef7cac, S=1,        1, 0x00bd00bd
0,     504000,     504000,     1800,      837, 0x235494f2, S=1,        1, 0x00bd00bd
0,     505800,     505800,     1800,      773, 0x88538175, S=1,        1, 0x00bd00bd
0,     507600,     507600,     1800,      773, 0x177981fa, S=1,        1, 0x00bd00bd
0,     509400,     509400,     1800,      770, 0x273d7364, S=1,        1, 0x00bd00bd
0,     511200,     511200,     1800,      770, 0x3e837bf6, S=1,        1, 0x00bd00bd
0,     513000,     513000,     1800,      774, 0x08219078, S=1,        1, 0x00bd00bd
0,     514800,     514800,     1800,      767, 0xeb5f797c, S=1,        1, 0x00bd00bd
0,     516600,     516600,     1800,      774, 0x8eaa7a45, S=1,        1, 0x00bd00bd
0,     518400,     518400,     1800,      833, 0x73249305, S=1,        1, 0x00bd00bd
0,     520200,     520200,     1800,      774, 0x97e585d5, S=1,        1, 0x00bd00bd
0,     522000,     522000,     1800,      768, 0x45b278fe, S=1,        1, 0x00bd00bd
0,     523800,     523800,     1800,      773, 0xacf47d25, S=1,        1, 0x00bd00bd
0,     525600,     525600,     1800,      768, 0xd382773d, S=1,        1, 0x00bd00bd
0,     527400,     527400,     1800,      769, 0x20e97a5f, S=1,        1, 0x00bd00bd
0,     529200,     529200,     1800,      767, 0x0ef67dab, S=1,        1, 0x00bd00bd
0,     531000,     531000,     1800,      773, 0x5fa98693, S=1,        1, 0x00bd00bd
0,     532800,     532800,     1800,      774, 0xd27686ab, S=1,        1, 0x00bd00bd
0,     534600,     534600,     1800,      769, 0xc3d67ac2, S=1,        1, 0x00bd00bd
0,     536400,     536400,     1800,      833, 0x80c89f70, S=1,        1, 0x00bd00bd
0,     538200,     538200,     1800,      768, 0x5000776f, S=1,        1, 0x00bd00bd
0,     540000,     540000,     1800,      772, 0x79b2812e, S=1,        1, 0x00bd00bd
0,     541800,     541800,     1800,      839, 0x5276ad2b, S=1,        1, 0x00bd00bd
0,     543600,     543600,     1800,      769, 0xa58279b1, S=1,        1, 0x00bd00bd
0,     545400,     545400,     1800,      769, 0x826f8c2c, S=1,        1, 0x00bd00bd
0,     547200,     547200,     1800,      771, 0x5a508980, S=1,        1, 0x00bd00bd
0,     549000,     549000,     1800,      770, 0x659a7e09, S=1,        1, 0x00bd00bd
0,     550800,     550800,     1800,      771, 0x30ef74db, S=1,        1, 0x00bd00bd
0,     552600,     552600,     1800,      767, 0xc75d84cd, S=1,        1, 0x00bd00bd
0,     554400,     554400,     1800,      899, 0x9881c627, S=1,        1, 0x00bd00bd
0,     556200,     556200,     1800,      953, 0x0c90bd10, S=1,        1, 0x00bd00bd
0,     558000,     558000,     1800,      770, 0x2cdf8498, S=1,        1, 0x00bd00bd
0,     559800,     559800,     1800,      770, 0x0fdc7c67, S=1,        1, 0x00bd00bd
0,     561600,     561600,     1800,      771, 0x721a7d42, S=1,        1, 0x00bd00bd
0,     563400,     563400,     1800,      770, 0x164c71fc, S=1,        1, 0x00bd00bd
0,     565200,     565200,     1800,      769, 0xc36f7c71, S=1,        1, 0x00bd00bd
0,     567000,     567000,     1800,      896, 0xfad5bc39, S=1,        1, 0x00bd00bd
0,     568800,     568800,     1800,      957, 0x08c8e4ff, S=1,        1, 0x00bd00bd
0,     570600,     570600,     1800,      773, 0x009b81a0, S=1,        1, 0x00bd00bd
0,     572400,     572400,     1800,      774, 0xa26d83e9, S=1,        1, 0x00bd00bd
0,     574200,     574200,     1800,      956, 0x0544dde1, S=1,        1, 0x00bd00bd
0,     576000,     576000,     1800,      768, 0x3e4887f3, S=1,        1, 0x00bd00bd
0,     577800,     577800,     1800,      770, 0x24007a3a, S=1,        1, 0x00bd00bd
0,     579600,     579600,     1800,      771, 0x14508287, S=1,        1, 0x00bd00bd
0,     581400,     581400,     1800,      955, 0xa0f3de18, S=1,        1, 0x00bd00bd
0,     583200,     583200,     1800,      953, 0xcb75d2ff, S=1,        1, 0x00bd00bd
0,     585000,     585000,     1800,      767, 0x85ec747e, S=1,        1, 0x00bd00bd
0,     586800,     586800,     1800,      768, 0x8b2971a1, S=1,        1, 0x00bd00bd
0,     588600,     588600,     1800,      774, 0xc73b8a85, S=1,        1, 0x00bd00bd
0,     590400,     590400,     1800,      835, 0xe77e9333, S=1,        1, 0x00bd00bd
0,     592200,     592200,     1800,      768, 0x52428713, S=1,        1, 0x00bd00bd
0,     594000,     594000,     1800,      769, 0xf62377f5, S=1,        1, 0x00bd00bd
0,     595800,     595800,     1800,      771, 0xb0827990, S=1,        1, 0x00bd00bd
0,     597600,     597600,     1800,      771, 0xb93a8522, S=1,        1, 0x00bd00bd
0,     599400,     599400,     1800,      770, 0x9e748d23, S=1,        1, 0x00bd00bd
0,     601200,     601200,     1800,      768, 0x92d6779e, S=1,        1, 0x00bd00bd
0,     603000,     603000,     1800,      951, 0x371ae535, S=1,        1, 0x00bd00bd
0,     604800,     604800,     1800,      950, 0xe273dfb9, S=1,        1, 0x00bd00bd
0,     606600,     606600,     1800,      947, 0xe806d1f7, S=1,        1, 0x00bd00bd
0,     608400,     608400,     1800,      956, 0x9c61d286, S=1,        1, 0x00bd00bd
0,     610200,     610200,     1800,      951, 0x76b5ee35, S=1,        1, 0x00bd00bd
0,     612000,     612000,     1800,      943, 0xcfe7e11b, S=1,        1, 0x00bd00bd
0,     613800,     613800,     1800,      766, 0xcc83760a, S=1,        1, 0x00bd00bd
0,     615600,     615600,     1800,      890, 0xafbbbb4d, S=1,        1, 0x00bd00bd
0,     617400,     617400,     1800,      952, 0x6fbade31, S=1,        1, 0x00bd00bd
0,     619200,     619200,     1800,      766, 0x49ba84d4, S=1,        1, 0x00bd00bd
0,     621000,     621000,     1800,      767, 0xb29e6f83, S=1,        1, 0x00bd00bd
0,     622800,     622800,     1800,      760, 0xffe47a95, S=1,        1, 0x00bd00bd
0,     624600,     624600,     1800,      946, 0x768cddda, S=1,        1, 0x00bd00bd
0,     626400,     626400,     1800,      769, 0x1a228c70, S=1,        1, 0x00bd00bd
0,     628200,     628200,     1800,      760, 0xa6287fd7, S=1,        1, 0x00bd00bd
0,     630000,     630000,     1800,      762, 0x1d2d76b1, S=1,        1, 0x00bd00bd
0,     631800,     631800,     1800,      767, 0x047c845c, S=1,        1, 0x00bd00bd
0,     633600,     633600,     1800,      767, 0xea6c7a91, S=1,        1, 0x00bd00bd
0,     635400,     635400,     1800,      763, 0x49d47134, S=1,        1, 0x00bd00bd
0,     637200,     637200,     1800,      760, 0xb29a6ea7, S=1,        1, 0x00bd00bd
0,     639000,     639000,     1800,      763, 0x14458825, S=1,        1, 0x00bd00bd
0,     640800,     640800,     1800,      764, 0x6f437f87, S=1,        1, 0x00bd00bd
0,     642600,     642600,     1800,      764, 0xa1757bce, S=1,        1, 0x00bd00bd
0,     644400,     644400,     1800,      763, 0x77b8863b, S=1,        1, 0x00bd00bd
0,     646200,     646200,     1800,      763, 0x2edf70dd, S=1,        1, 0x00bd00bd
0,     648000,     648000,     1800,      764, 0x96177b9f, S=1,        1, 0x00bd00bd
0,     649800,     649800,     1800,      766, 0xa75168cf, S=1,        1, 0x00bd00bd
0,     651600,     651600,     1800,      767, 0xba19756f, S=1,        1, 0x00bd00bd
0,     653400,     653400,     1800,      765, 0x7e0676dd, S=1,        1, 0x00bd00bd
0,     655200,     655200,     1800,      767, 0x60a18dbd, S=1,        1, 0x00bd00bd
0,     657000,     657000,     1800,      763, 0x094d7636, S=1,        1, 0x00bd00bd
0,     658800,     658800,     1800,      767, 0x0cfa8023, S=1,        1, 0x00bd00bd
0,     660600,     660600,     1800,      768, 0x69ec81c5, S=1,        1, 0x00bd00bd
0,     662400,     662400,     1800,      764, 0x153f78ff, S=1,        1, 0x00bd00bd
0,     664200,     664200,     1800,      765, 0x08f98ede, S=1,        1, 0x00bd00bd
0,     666000,     666000,     1800,      764, 0xb0547fe9, S=1,        1, 0x00bd00bd
0,     667800,     667800,     1800,      769, 0x7b687865, S=1,        1, 0x00bd00bd
0,     669600,     669600,     1800,      766, 0x238e80e1, S=1,        1, 0x00bd00bd
0,     671400,     671400,     1800,      766, 0x684183f2, S=1,        1, 0x00bd00bd
0,     673200,     673200,     1800,      829, 0xe9e0995d, S=1,        1, 0x00bd00bd
0,     675000,     675000,     1800,      765, 0xa0047b3a, S=1,        1, 0x00bd00bd
0,     676800,     676800,     1800,      766, 0x5afb7c11, S=1,        1, 0x00bd00bd
0,     678600,     678600,     1800,      766, 0xce5f7f35, S=1,        1, 0x00bd00bd
0,     680400,     680400,     1800,      898, 0x467ac6b9, S=1,        1, 0x00bd00bd
0,     682200,     682200,     1800,      767, 0x594c7b13, S=1,        1, 0x00bd00bd
0,     684000,     684000,     1800,      896, 0x79e8b3c6, S=1,        1, 0x00bd00bd
0,     685800,     685800,     1800,      764, 0x1f9264c5, S=1,        1, 0x00bd00bd
0,     687600,     687600,     1800,      762, 0x068c830f, S=1,        1, 0x00bd00bd
0,     689400,     689400,     1800,      762, 0xd940760a, S=1,        1, 0x00bd00bd
0,     691200,     691200,     1800,      763, 0xbad583c4, S=1,        1, 0x00bd00bd
0,     693000,     693000,     1800,      947, 0xf61ed65c, S=1,        1, 0x00bd00bd
0,     694800,     694800,     1800,      767, 0x03a078ea, S=1,        1, 0x00bd00bd
0,     696600,     696600,     1800,      957, 0x7762e49b, S=1,        1, 0x00bd00bd
0,     698400,     698400,     1800,      955, 0x1541d660, S=1,        1, 0x00bd00bd
0,     700200,     700200,     1800,      767, 0xd6798911, S=1,        1, 0x00bd00bd
0,     702000,     702000,     1800,      767, 0x4f317dff, S=1,        1, 0x00bd00bd
0,     703800,     703800,     1800,      764, 0x47e17b33, S=1,        1, 0x00bd00bd
0,     705600,     705600,     1800,      763, 0x0c0c86b8, S=1,        1, 0x00bd00bd
0,     707400,     707400,     1800,      769, 0x18558aee, S=1,        1, 0x00bd00bd
0,     709200,     709200,     1800,      766, 0xe0aa764b, S=1,        1, 0x00bd00bd
0,     711000,     711000,     1800,      762, 0x87357d81, S=1,        1, 0x00bd00bd
0,     712800,     712800,     1800,      766, 0xdc8b7167, S=1,        1, 0x00bd00bd
0,     714600,     714600,     1800,      768, 0x7dbe92db, S=1,        1, 0x00bd00bd
0,     716400,     716400,     1800,      765, 0xb451867e, S=1,        1, 0x00bd00bd
0,     718200,     718200,     1800,      953, 0x12d7d687, S=1,        1, 0x00bd00bd
0,     720000,     720000,     1800,      769, 0x649c7d28, S=1,        1, 0x00bd00bd
0,     721800,     721800,     1800,      955, 0xce1fd2aa, S=1,        1, 0x00bd00bd
0,     723600,     723600,     1800,      952, 0x247dd870, S=1,        1, 0x00bd00bd
0,     725400,     725400,     1800,      951, 0x36d4da18, S=1,        1, 0x00bd00bd
0,     727200,     727200,     1800,      954, 0xbe6bd18f, S=1,        1, 0x00bd00bd
0,     729000,     729000,     1800,      948, 0xc770ca89, S=1,        1, 0x00bd00bd
0,     730800,     730800,     1800,      761, 0x9c5d77ea, S=1,        1, 0x00bd00bd
0,     732600,     732600,     1800,      763, 0xdedd88e0, S=1,        1, 0x00bd00bd
0,     734400,     734400,     1800,      760, 0x742a8286, S=1,        1, 0x00bd00bd
0,     736200,     736200,     1800,      764, 0x89917053, S=1,        1, 0x00bd00bd
0,     738000,     738000,     1800,      764, 0x77447622, S=1,        1, 0x00bd00bd
0,     739800,     739800,     1800,      946, 0x9ebad2bd, S=1,        1, 0x00bd00bd
0,     741600,     741600,     1800,      758, 0x638a836d, S=1,        1, 0x00bd00bd
0,     743400,     743400,     1800,      950, 0x285ec904, S=1,        1, 0x00bd00bd
0,     745200,     745200,     1800,      769, 0x43107232, S=1,        1, 0x00bd00bd
0,     747000,     747000,     1800,      764, 0x996b7a0f, S=1,        1, 0x00bd00bd
0,     748800,     748800,     1800,      757, 0xa5356f50, S=1,        1, 0x00bd00bd
0,     750600,     750600,     1800,      761, 0x628e7c55, S=1,        1, 0x00bd00bd
0,     752400,     752400,     1800,      761, 0xcbcc7416, S=1,        1, 0x00bd00bd
0,     754200,     754200,     1800,      759, 0x34bc71ba, S=1,        1, 0x00bd00bd
0,     756000,     756000,     1800,      758, 0xcca27ff3, S=1,        1, 0x00bd00bd
0,     757800,     757800,     1800,      767, 0x7ab882b6, S=1,        1, 0x00bd00bd
0,     759600,     759600,     1800,      761, 0xcbd7854a, S=1,        1, 0x00bd00bd
0,     761400,     761400,     1800,      828, 0x55be93e0, S=1,        1, 0x00bd00bd
0,     763200,     763200,     1800,      759, 0xb6fb804c, S=1,        1, 0x00bd00bd
0,     765000,     765000,     1800,      761, 0x331d7b48, S=1,        1, 0x00bd00bd
0,     766800,     766800,     1800,      762, 0xa84e7e9b, S=1,        1, 0x00bd00bd
0,     768600,     768600,     1800,      761, 0x97448037, S=1,        1, 0x00bd00bd
0,     770400,     770400,     1800,      757, 0xc82186bc, S=1,        1, 0x00bd00bd
0,     772200,     772200,     1800,      759, 0x82ab8746, S=1,        1, 0x00bd00bd
0,     774000,     774000,     1800,      759, 0x884f6d1a, S=1,        1, 0x00bd00bd
0,     775800,     775800,     1800,      761, 0xf2906fa9, S=1,        1, 0x00bd00bd
0,     777600,     777600,     1800,      756, 0x3eb76a17, S=1,        1, 0x00bd00bd
0,     779400,     779400,     1800,      765, 0x4de67a40, S=1,        1, 0x00bd00bd
0,     781200,     781200,     1800,      759, 0x2e7c7b1e, S=1,        1, 0x00bd00bd
0,     783000,     783000,     1800,      759, 0xdac278fa, S=1,        1, 0x00bd00bd
0,     784800,     784800,     1800,      761, 0x5caf700e, S=1,        1, 0x00bd00bd
0,     786600,     786600,     1800,      762, 0xd4107b13, S=1,        1, 0x00bd00bd
0,     788400,     788400,     1800,      771, 0xe4f16cd4, S=1,        1, 0x00bd00bd
0,     790200,     790200,     1800,      758, 0x96088772, S=1,        1, 0x00bd00bd
0,     792000,     792000,     1800,      759, 0x68fd798d, S=1,        1, 0x00bd00bd
0,     793800,     793800,     1800,      760, 0x7c896c77, S=1,        1, 0x00bd00bd
0,     795600,     795600,     1800,      762, 0x10f07df6, S=1,        1, 0x00bd00bd
0,     797400,     797400,     1800,      760, 0x902373b8, S=1,        1, 0x00bd00bd
0,     799200,     799200,     1800,      760, 0xd9db8045, S=1,        1, 0x00bd00bd
0,     801000,     801000,     1800,      757, 0x5164796e, S=1,        1, 0x00bd00bd
0,     802800,     802800,     1800,      762, 0x41f278ba, S=1,        1, 0x00bd00bd
0,     804600,     804600,     1800,      763, 0x04e676b1, S=1,        1, 0x00bd00bd
0,     806400,     806400,     1800,      835, 0x035899d3, S=1,        1, 0x00bd00bd
0,     808200,     808200,     1800,      758, 0x90b7828e, S=1,        1, 0x00bd00bd
0,     810000,     810000,     1800,      761, 0x2f446e0e, S=1,        1, 0x00bd00bd
0,     811800,     811800,     1800,      888, 0x3c6cb74c, S=1,        1, 0x00bd00bd
0,     813600,     813600,     1800,      758, 0x8f267d72, S=1,        1, 0x00bd00bd
0,     815400,     815400,     1800,      765, 0xaa2f7f16, S=1,        1, 0x00bd00bd
0,     817200,     817200,     1800,      761, 0x8b3d7e23, S=1,        1, 0x00bd00bd
0,     819000,     819000,     1800,      764, 0xd4d981fb, S=1,        1, 0x00bd00bd
0,     820800,     820800,     1800,      762, 0xa98d740b, S=1,        1, 0x00bd00bd
0,     822600,     822600,     1800,      767, 0xad358079, S=1,        1, 0x00bd00bd
0,     824400,     824400,     1800,      759, 0x165875cb, S=1,        1, 0x00bd00bd
0,     826200,     826200,     1800,      761, 0x65d17adf, S=1,        1, 0x00bd00bd
0,     828000,     828000,     1800,      762, 0x89927901, S=1,        1, 0x00bd00bd
0,     829800,     829800,     1800,      763, 0xdee4742c, S=1,        1, 0x00bd00bd
0,     831600,     831600,     1800,      760, 0xd6197581, S=1,        1, 0x00bd00bd
0,     833400,     833400,     1800,      832, 0x83398c5a, S=1,        1, 0x00bd00bd
0,     835200,     835200,     1800,      761, 0x90a48500, S=1,        1, 0x00bd00bd
0,     837000,     837000,     1800,      887, 0xf8fbc1cf, S=1,        1, 0x00bd00bd
0,     838800,     838800,     1800,      765, 0x196f800a, S=1,        1, 0x00bd00bd
0,     840600,     840600,     1800,      763, 0x70e581d8, S=1,        1, 0x00bd00bd
0,     842400,     842400,     1800,      763, 0x79087b7d, S=1,        1, 0x00bd00bd
0,     844200,     844200,     1800,      952, 0x5862f4fe, S=1,        1, 0x00bd00bd
0,     846000,     846000,     1800,      953, 0x2c00dc09, S=1,        1, 0x00bd00bd
0,     847800,     847800,     1800,      945, 0x66cbe386, S=1,        1, 0x00bd00bd
0,     849600,     849600,     1800,      948, 0xe77fdca7, S=1,        1, 0x00bd00bd
0,     851400,     851400,     1800,      951, 0xe532d54f, S=1,        1, 0x00bd00bd
0,     853200,     853200,     1800,      826, 0xd0028f8f, S=1,        1, 0x00bd00bd
0,     855000,     855000,     1800,      763, 0xd2a5722c, S=1,        1, 0x00bd00bd
0,     856800,     856800,     1800,      763, 0x798090ab, S=1,        1, 0x00bd00bd
0,     858600,     858600,     1800,      766, 0xbb498e19, S=1,        1, 0x00bd00bd
0,     860400,     860400,     1800,      946, 0x463fc5aa, S=1,        1, 0x00bd00bd
0,     862200,     862200,     1800,      762, 0xea638f8b, S=1,        1, 0x00bd00bd
0,     864000,     864000,     1800,      765, 0x0eed7bd2, S=1,        1, 0x00bd00bd
0,     865800,     865800,     1800,      763, 0xfb1b6eae, S=1,        1, 0x00bd00bd
0,     867600,     867600,     1800,      761, 0xa48a7407, S=1,        1, 0x00bd00bd
0,     869400,     869400,     1800,      760, 0xcd737c43, S=1,        1, 0x00bd00bd
0,     871200,     871200,     1800,      757, 0xeffd7c1a, S=1,        1, 0x00bd00bd
0,     873000,     873000,     1800,      757, 0x2f6272cb, S=1,        1, 0x00bd00bd
0,     874800,     874800,     1800,      762, 0xe2a28223, S=1,        1, 0x00bd00bd
0,     876600,     876600,     1800,      760, 0xecb47548, S=1,        1, 0x00bd00bd
0,     878400,     878400,     1800,      763, 0x80ac8293, S=1,        1, 0x00bd00bd
0,     880200,     880200,     1800,      764, 0x5a067114, S=1,        1, 0x00bd00bd
0,     882000,     882000,     1800,      946, 0x7af2c695, S=1,        1, 0x00bd00bd
0,     883800,     883800,     1800,      946, 0xaadeddb9, S=1,        1, 0x00bd00bd
0,     885600,     885600,     1800,      949, 0x75bdd657, S=1,        1, 0x00bd00bd
0,     887400,     887400,     1800,      946, 0x3fcdd17a, S=1,        1, 0x00bd00bd
0,     889200,     889200,     1800,      940, 0x8441e164, S=1,        1, 0x00bd00bd
0,     891000,     891000,     1800,      762, 0x062782a9, S=1,        1, 0x00bd00bd
0,     892800,     892800,     1800,      759, 0xfda97d5b, S=1,        1, 0x00bd00bd
0,     894600,     894600,     1800,      942, 0x030eda68, S=1,        1, 0x00bd00bd
0,     896400,     896400,     1800,      764, 0x1be87f32, S=1,        1, 0x00bd00bd
0,     898200,     898200,     1800,      759, 0x9dd577e7, S=1,        1, 0x00bd00bd
0,     900000,     900000,     1800,      760, 0x321f7312, S=1,        1, 0x00bd00bd
0,     901800,     901800,     1800,      757, 0xd81b7513, S=1,        1, 0x00bd00bd
0,     903600,     903600,     1800,      941, 0x088cd7e7, S=1,        1, 0x00bd00bd
0,     905400,     905400,     1800,      943, 0xc7efddbe, S=1,        1, 0x00bd00bd
0,     907200,     907200,     1800,      759, 0x31ed7bd4, S=1,        1, 0x00bd00bd
0,     909000,     909000,     1800,      759, 0xddd47489, S=1,        1, 0x00bd00bd
0,     910800,     910800,     1800,      762, 0xb76a7c1f, S=1,        1, 0x00bd00bd
0,     912600,     912600,     1800,      831, 0x88389ce4, S=1,        1, 0x00bd00bd
0,     914400,     914400,     1800,      756, 0x961878d2, S=1,        1, 0x00bd00bd
0,     916200,     916200,     1800,      760, 0xb4e583bc, S=1,        1, 0x00bd00bd
0,     918000,     918000,     1800,      761, 0x2f597c42, S=1,        1, 0x00bd00bd
0,     919800,     919800,     1800,      759, 0x43e972f1, S=1,        1, 0x00bd00bd
